<svg xmlns="http://www.w3.org/2000/svg" xmlns:xlink="http://www.w3.org/1999/xlink" width="95" height="95" viewBox="0 0 95 95">
    <defs>
        <path id="a" d="M0 30.552h45.335V0H0z"/>
    </defs>
    <g fill="none" fill-rule="evenodd">
        <circle cx="47.5" cy="47.5" r="47.5" fill="#FFF" opacity=".05"/>
        <g transform="translate(25 32)">
            <path fill="#FFF" d="M45.334 1.881V28.76h-.089c-.06.479-.255.866-.583 1.165a2.771 2.771 0 0 1-1.119.627H1.792a2.754 2.754 0 0 1-1.12-.627c-.33-.299-.524-.686-.582-1.165H0V1.88l.09-.09c.058-.416.253-.79.582-1.12C1 .345 1.372.15 1.792.09l.09-.09h41.571l.09.09c.418.06.791.256 1.12.582.327.33.522.704.582 1.12l.09.09z" opacity=".3"/>
            <mask id="b" fill="#fff">
                <use xlink:href="#a"/>
            </mask>
            <path fill="#FFF" d="M0 13.618h45.334V5.913H0z" mask="url(#b)"/>
            <path fill="#FFF" d="M42.2 20.024c.715.687 1.074 1.568 1.074 2.643 0 1.075-.359 1.971-1.075 2.688a3.542 3.542 0 0 1-2.598 1.075H6.093c-1.076 0-1.972-.358-2.688-1.075-.717-.717-1.075-1.613-1.075-2.688 0-1.075.358-1.956 1.075-2.643.716-.685 1.612-1.06 2.688-1.12H39.6c1.014.06 1.881.435 2.598 1.12" mask="url(#b)" opacity=".5"/>
            <path fill="#0079BF" d="M29.656 20.696c-.24 0-.508.33-.806.986-.121.479-.15.955-.09 1.433l.09-.09c.358-.237.656-.537.895-.895s.27-.746.09-1.165l-.18-.269zm8.063 3.315c-2.687 1.196-4.898 1.792-6.63 1.792h-.269c-1.195-.059-2.03-.359-2.508-.896-.896.479-1.778.762-2.643.85-.867.09-1.539-.043-2.016-.402-.18-.18-.314-.448-.404-.806-.089-.359.046-.836.404-1.434.656-1.075.776-1.792.358-2.15-.24-.18-.613-.163-1.12.044-.507.21-.971.614-1.388 1.21-.716 1.016-1.763 1.853-3.137 2.509-.418.18-.955.358-1.612.538a2.564 2.564 0 0 1-1.882-.18c-.357-.179-.627-.537-.806-1.075-.179-.537 0-1.374.538-2.509.119-.238.148-.387.09-.447-.121-.12-.553-.135-1.3-.046-.747.09-1.598.403-2.553.941-1.254.717-1.823 1.375-1.703 1.972.12.418-.015.687-.403.806-.39.12-.672 0-.851-.36-.359-1.133.239-2.207 1.793-3.224.896-.596 1.925-1.044 3.09-1.344 1.165-.298 2.105-.208 2.822.269.18.12.315.344.404.672.09.329.014.792-.225 1.389-.418.956-.508 1.554-.268 1.792.477.178 1.238.03 2.285-.448 1.044-.478 1.881-1.15 2.508-2.016.627-.866 1.374-1.447 2.24-1.748.865-.297 1.626-.237 2.285.18.417.24.672.702.76 1.389.09.687-.164 1.538-.76 2.552-.18.3-.24.48-.18.538.119.06.463.06 1.03 0 .568-.058 1.21-.238 1.927-.538-.3-.775-.3-1.612 0-2.508.298-.896.747-1.492 1.344-1.792.478-.237.896-.253 1.254-.044.36.21.627.493.806.85.597 1.315.15 2.57-1.343 3.763l-.09.09c1.015.42 2.299.403 3.853-.044 1.552-.448 2.806-.881 3.763-1.3.358-.18.627-.074.807.314.178.39.089.671-.27.851z" mask="url(#b)"/>
        </g>
    </g>
</svg>
