<svg xmlns="http://www.w3.org/2000/svg" xmlns:xlink="http://www.w3.org/1999/xlink" width="95" height="95" viewBox="0 0 95 95">
    <defs>
        <path id="a" d="M.202.142h25.765v12.146H.202z"/>
    </defs>
    <g fill="none" fill-rule="evenodd">
        <circle cx="47.5" cy="47.5" r="47.5" fill="#FFF" opacity=".05"/>
        <path fill="#FFF" d="M36.494 55.074l10.672 12.424.08-.08-5.496-12.344h-5.256zm3.584-3.823l-3.584 3.823-8.84-10.514-.32-.317c-.212-.212-.318-.425-.318-.638h9.716l3.346 7.646z" opacity=".1"/>
        <path fill="#FFF" d="M54.573 51.251l3.584 3.823 9.318-10.911c.16-.3.24-.487.24-.558h-9.797l-3.345 7.646zM47.564 67.5c-.107.052-.133.026-.08-.08l5.496-12.345h5.177L47.564 67.499z" opacity=".34"/>
        <path fill="#FFF" d="M54.573 51.251l-1.593 3.823h5.177l-3.584-3.823zm-7.247-7.646l7.247 7.725 3.345-7.725H47.326zM41.75 55.074l5.496 12.504c.052.052.106.052.16 0l5.574-12.504H41.75zm-5.017-11.469l3.345 7.725 7.328-7.725H36.733zm5.256-5.655l-5.256 5.655h-9.717c-.053-.052.026-.239.24-.557l8.999-10.514c.052-.052.105-.079.16-.079.105-.16.264-.239.477-.239.478.054.717.292.717.717a.712.712 0 0 1-.08.318l4.46 4.7z" opacity=".2"/>
        <path fill="#FFF" d="M58.157 32.136H47.326l5.415 5.814 5.416-5.814zM41.989 37.95l-5.336-5.575c-.053-.106-.027-.159.08-.159l10.195-.08h.398l-5.337 5.814z" opacity=".8"/>
        <path fill="#FFF" d="M47.325 43.605H36.733l5.256-5.655z" opacity=".9"/>
        <path fill="#FFF" d="M41.75 55.074h-5.256l3.584-3.823z" opacity=".3"/>
        <path fill="#FFF" d="M47.325 43.605l7.248 7.646-1.593 3.823H41.75l-1.672-3.823z" opacity=".8"/>
        <path fill="#B2E2F9" d="M57.918 43.605H47.325l5.416-5.655z"/>
        <path fill="#FFF" d="M56.883 43.446a4.626 4.626 0 0 0 1.951-1.115c.557-.53.942-1.195 1.155-1.991.105-.159.212-.159.318 0 .16.796.518 1.46 1.075 1.991a4.6 4.6 0 0 0 2.032 1.115c.159.107.159.213 0 .319a4.619 4.619 0 0 0-2.032 1.115c-.557.53-.915 1.194-1.075 1.99-.106.16-.213.16-.318 0-.213-.796-.598-1.46-1.155-1.99a4.647 4.647 0 0 0-1.951-1.115c-.16-.106-.16-.212 0-.319"/>
        <g transform="translate(41.787 31.994)">
            <mask id="b" fill="#fff">
                <use xlink:href="#a"/>
            </mask>
            <path fill="#FFF" d="M25.928 11.61L16.37.143l-5.416 5.735 5.177 5.733H25.928zM.202 5.957L5.538.142l5.337 5.814-5.337 5.654L.202 5.956z" mask="url(#b)" opacity=".5"/>
        </g>
        <path fill="#B2E2F9" d="M51.148 28.712c.797-.266 1.327-.823 1.593-1.672.053-.053.106-.053.16 0 .265.85.796 1.406 1.593 1.672.106.053.106.08 0 .08-.797.266-1.328.823-1.594 1.671-.053.055-.106.055-.159 0-.266-.848-.796-1.405-1.593-1.672-.053 0-.053-.026 0-.08"/>
    </g>
</svg>
