<svg xmlns="http://www.w3.org/2000/svg" width="95" height="95" viewBox="0 0 95 95">
    <g fill="#FFF" fill-rule="evenodd">
        <circle cx="47.5" cy="47.5" r="47.5" opacity=".05"/>
        <path d="M68.152 63.798c.246-.063.37-.217.37-.464 0-.245-.124-.37-.37-.37H26.65c-.248 0-.372.125-.372.37 0 .247.124.401.372.464h41.503zm0-4.632c.246 0 .37-.123.37-.37 0-.309-.124-.464-.37-.464H26.65c-.248 0-.372.14-.372.417 0 .278.124.417.372.417h41.503zm0-4.539c.246-.062.37-.216.37-.464 0-.246-.124-.37-.37-.37H26.65c-.248 0-.372.124-.372.37 0 .248.124.402.372.464h41.503zm0-4.633c.246 0 .37-.123.37-.37 0-.308-.124-.464-.37-.464H26.65c-.248 0-.372.14-.372.417 0 .279.124.417.372.417h41.503zm0-4.632c.246 0 .37-.123.37-.37 0-.246-.124-.401-.37-.463H26.65c-.248.062-.372.217-.372.462 0 .248.124.37.372.37h41.503zm0-4.54c.246 0 .37-.153.37-.462 0-.246-.124-.37-.37-.37H26.65c-.248 0-.372.138-.372.416 0 .278.124.417.372.417h41.503zm0-4.632c.246 0 .37-.122.37-.37 0-.246-.124-.401-.37-.463H26.65c-.248.062-.372.217-.372.463 0 .248.124.37.372.37h41.503zm0-4.539c.246-.06.37-.216.37-.463 0-.246-.124-.371-.37-.371H26.65c-.248 0-.372.125-.372.37 0 .248.124.404.372.464h41.503zm0-4.632H26.65c-.248 0-.372-.123-.372-.37 0-.246.124-.401.372-.464h41.503c.246.063.37.218.37.463 0 .248-.124.37-.37.37z" opacity=".2"/>
        <path d="M40.73 67.781h-9.357V35.635c0-.556.2-1.034.603-1.436.4-.401.88-.603 1.436-.603h5.28c.617 0 1.111.202 1.483.603.37.402.555.88.555 1.436v32.146z" opacity=".6"/>
        <path d="M53.237 67.781H43.88V50.458c0-.617.2-1.127.602-1.529.4-.401.88-.603 1.436-.603h5.281c.556 0 1.034.202 1.435.603.402.402.603.912.603 1.529V67.78z" opacity=".3"/>
        <path d="M65.743 67.781h-9.357V30.447c0-.617.187-1.112.556-1.482.37-.371.865-.587 1.483-.65h5.28a2.466 2.466 0 0 1 1.435.65c.402.37.603.865.603 1.482V67.78z" opacity=".8"/>
        <path d="M68.152 68.337H26.65c-.372 0-.588-.217-.649-.648v-41.04c.06-.432.277-.648.649-.648.37 0 .586.216.648.648V67.04h40.855c.37.06.556.292.556.694 0 .4-.185.602-.556.602"/>
    </g>
</svg>
