<svg xmlns="http://www.w3.org/2000/svg" width="41" height="33" viewBox="0 0 41 33">
    <g fill="none" fill-rule="evenodd">
        <path fill="#1EBEE7" d="M40.8 10.855c.133 2.474-.49 4.776-1.871 6.903-.903 1.33-1.965 2.394-3.186 3.192L21.328 32.681c-.586.425-1.169.425-1.752 0L5.08 20.951c-1.275-.799-2.363-1.888-3.265-3.273C.38 15.39-.204 12.93.062 10.296.328 7.663 1.39 5.388 3.248 3.473 5.584 1.24 8.252.121 11.253.121c2.999 0 5.667 1.118 8.003 3.352.32.32.69.479 1.116.479.424 0 .823-.16 1.194-.479C24.008 1.133 26.81.03 29.97.162c3.158.133 5.906 1.475 8.243 4.029 1.593 1.97 2.456 4.19 2.589 6.664"/>
        <path fill="#8CD5EA" d="M4.346 12h-.078c-.418-.053-.744-.227-.98-.521a1.26 1.26 0 0 1-.273-1.003c.156-1.871.795-3.475 1.92-4.812 1.121-1.336 2.572-2.218 4.348-2.646.418-.053.784.013 1.098.2.312.187.509.481.587.882.079.401.012.775-.196 1.123-.21.348-.497.549-.862.601-1.15.321-2.09.91-2.821 1.764-.732.857-1.175 1.9-1.332 3.129a1.2 1.2 0 0 1-.392.922c-.261.24-.601.361-1.019.361"/>
    </g>
</svg>
