<svg xmlns="http://www.w3.org/2000/svg" xmlns:xlink="http://www.w3.org/1999/xlink" width="59" height="59" viewBox="0 0 59 59">
    <defs>
        <path id="a" d="M0 .582h58.418V59H0z"/>
        <path id="c" d="M0 .647h58.418V17H0z"/>
    </defs>
    <g fill="none" fill-rule="evenodd">
        <g transform="translate(0 -.582)">
            <mask id="b" fill="#fff">
                <use xlink:href="#a"/>
            </mask>
            <path fill="#D3F8FD" d="M58.419 57.578c-.08.869-.554 1.343-1.423 1.422H1.422C.552 58.92.078 58.447 0 57.578V2.004C.078 1.136.552.66 1.422.582h55.574c.869.079 1.343.554 1.423 1.422v55.574z" mask="url(#b)"/>
        </g>
        <g transform="translate(0 41.418)">
            <mask id="d" fill="#fff">
                <use xlink:href="#c"/>
            </mask>
            <path fill="#54CBFF" d="M58.419.647v14.931c-.08.87-.554 1.342-1.423 1.422H1.422C.552 16.92.078 16.447 0 15.578V.648h58.419z" mask="url(#d)"/>
        </g>
        <path fill="#FFE0A9" d="M45.383 41.947c4.188 2.45 6.358 4.584 6.518 6.398-.16 1.583-2.33 2.922-6.518 4.03-4.188 1.105-9.42 1.66-15.7 1.66-6.28 0-11.514-.554-15.7-1.66-4.189-1.108-6.36-2.447-6.518-4.03.157-1.814 2.33-3.948 6.518-6.398 4.186-2.447 9.4-3.791 15.64-4.028 6.32.237 11.573 1.582 15.76 4.029"/>
        <path fill="#FFBF00" d="M5.687 6.399c1.186-1.185 2.685-1.777 4.503-1.777 1.816 0 3.318.592 4.503 1.777 1.185 1.186 1.777 2.687 1.777 4.503 0 1.818-.592 3.318-1.777 4.503-1.185 1.184-2.687 1.777-4.503 1.777-1.818 0-3.317-.593-4.503-1.777-1.185-1.185-1.817-2.685-1.896-4.503.08-1.816.711-3.317 1.896-4.503"/>
        <path fill="#E4A96E" d="M36.852 43.37c-.948 0-1.739-.158-2.37-.475-.633-.315-.948-1.066-.948-2.252l.592-22.158c0-1.262.237-2.31.711-3.14.474-.83 1.164-1.245 2.074-1.245.907 0 1.6.415 2.074 1.245.473.83.711 1.878.711 3.14l.592 22.158c-.08 1.186-.415 1.937-1.007 2.252-.593.317-1.404.474-2.429.474"/>
        <path fill="#2DB95A" d="M50.242 8.769l-.118.118-6.044 2.488-1.303.593-1.185.593-1.896 1.304-.711.59-1.304 1.423-.236.475c-.08.079-.16.118-.237.118h-.237l-.474-.711-.475-.593-.711-.591-1.658-1.304-.948-.711-1.185-.593-2.488-1.184-4.86-1.897c-.16-.077-.217-.157-.177-.236.039-.078.099-.12.178-.12l1.54-.473 1.778-.237h1.422l2.37.237c.552.159 1.105.337 1.659.533.552.199 1.105.455 1.658.77a8.46 8.46 0 0 1 1.482 1.067c.433.397.808.829 1.126 1.304a6.93 6.93 0 0 1 1.126-1.304c.432-.394.907-.75 1.422-1.066a8.55 8.55 0 0 1 1.599-.771 28.46 28.46 0 0 1 1.658-.533l2.37-.355h1.422l1.778.237 1.422.474.119.118c.157 0 .196.08.118.237"/>
        <path fill="#2CD155" d="M36.852 17.893l.118-.118c0 .079-.04.118-.118.118zm17.774 4.147c-.08.317-.218.474-.415.474a.729.729 0 0 1-.533-.236l-1.185-2.015-1.659-1.777a8.683 8.683 0 0 0-1.303-1.067 9.88 9.88 0 0 0-1.54-.83l-.71-.355c-.08 0-.08 0 0 0l-3.2-.83-2.015-.117c.711 0 1.401.138 2.073.414.67.278 1.283.652 1.837 1.126l1.066 1.066.474.71c.395.635.67 1.266.83 1.897.395 1.265.513 2.41.356 3.437-.08.474-.178.908-.297 1.303-.118.396-.219.752-.296 1.066l-.593.71c-.236.238-.474.279-.71.12-.08-.158-.119-.276-.119-.355l-.237-.83-.119-.711-.355-.95-.593-1.183-.593-1.067-1.066-1.303-.474-.356a2.97 2.97 0 0 0-.888-.592 19.694 19.694 0 0 0-1.007-.415 2.556 2.556 0 0 0-.889-.177c-.278 0-.574.02-.888.059-.318.04-.593.1-.83.178l-1.422.71c-.16.08-.278.119-.356.119h-.118c-.159 0-.278-.04-.355-.118l-1.422-.711a4.5 4.5 0 0 0-.83-.178 7.307 7.307 0 0 0-.889-.06c-.277 0-.574.06-.889.178-.316.119-.65.257-1.007.415a2.97 2.97 0 0 0-.888.592l-.593.356h.118l-.71.712-.355.59-.712 1.068-.474 1.184-.355.949-.356 1.54c0 .317-.159.474-.474.474a1.263 1.263 0 0 1-.355-.237l-.593-.711c-.08-.314-.177-.67-.296-1.066a10.35 10.35 0 0 1-.296-1.303c-.16-1.026-.04-2.172.355-3.437a6.59 6.59 0 0 1 .83-1.896l1.066-1.304.474-.473a5.603 5.603 0 0 1 1.897-1.067c.314-.157.67-.275 1.066-.355l-2.489.237-1.303.236-1.896.71-.356.12-1.422.948L20.38 20.5l-.354.592c-.159.159-.338.178-.534.06-.198-.118-.296-.256-.296-.415l.237-1.54.711-1.66 1.185-2.014a9.312 9.312 0 0 1 1.481-1.6 11.607 11.607 0 0 1 1.955-1.362l1.066-.593 1.067-.355 1.896-.474 1.303-.118h1.304l1.184.118 1.186.356 1.066.473.474.356c.315.159.611.355.89.592.275.238.492.474.651.71l.118.12v.119l.356.355.473-.948c.078 0 .078 0 0 0l1.068-1.066.711-.474c.314-.158.67-.316 1.066-.475a8.228 8.228 0 0 1 2.37-.355h1.303c.394.08.83.159 1.304.237l1.777.71 1.54.83h.12l1.421 1.067 1.303 1.303c.474.554.87 1.108 1.185 1.659l1.067 2.015.355 1.185.237 1.659v.473z"/>
        <path fill="#AE773E" d="M34.008 22.514v2.37c.868.08 1.796.119 2.784.119.987 0 1.994-.04 3.023-.12v-2.487a18.67 18.67 0 0 1-3.081.237c-.949 0-1.858-.04-2.726-.12m2.725 5.57a176.13 176.13 0 0 0 3.2-.236v2.37a20.647 20.647 0 0 1-3.14.236c-1.066 0-2.035-.04-2.904-.118v-2.488c.868.079 1.816.159 2.844.236m0 5.333c1.186 0 2.292-.078 3.319-.237l.117 2.488c-1.183.079-2.31.118-3.377.118-1.066 0-2.114-.04-3.139-.118l.119-2.37c.867.08 1.855.119 2.962.119m.058 7.82c-1.145 0-2.232-.077-3.259-.237l.12-2.37c.869.16 1.895.238 3.08.238 1.263 0 2.41-.078 3.437-.237l.117 2.014v.355c-1.184.16-2.35.238-3.495.238"/>
    </g>
</svg>
