<svg xmlns="http://www.w3.org/2000/svg" xmlns:xlink="http://www.w3.org/1999/xlink" width="95" height="95" viewBox="0 0 95 95">
    <defs>
        <path id="a" d="M0 .145h34.292v41.49H0z"/>
    </defs>
    <g fill="none" fill-rule="evenodd">
        <circle cx="47.5" cy="47.5" r="47.5" fill="#FFF" opacity=".05"/>
        <g transform="translate(30 26.538)">
            <mask id="b" fill="#fff">
                <use xlink:href="#a"/>
            </mask>
            <path fill="#FFF" d="M34.293 28.613c-.055 1.295-.379 2.455-.971 3.479-.162.27-.27.565-.324.889-.27 2.588-1.577 4.662-3.923 6.227-2.345 1.564-6.134 2.372-11.363 2.427-5.608-.055-9.664-.999-12.171-2.83-2.508-1.835-3.79-4.178-3.842-7.037a2.05 2.05 0 0 0-.405-1.213C.43 29.369 0 28.007 0 26.47s.431-2.883 1.294-4.043c.862-1.16 2.022-1.982 3.478-2.467a2.526 2.526 0 0 0 1.294-1.295c1.24-2.803 2.413-4.986 3.519-6.55 1.103-1.564 2.492-2.615 4.164-3.155a20.86 20.86 0 0 0-2.062-3.437 32.75 32.75 0 0 0-2.305-2.79c-.485-.539-.607-1.093-.364-1.659.242-.566.714-.875 1.415-.93h15.044c.7.055 1.185.364 1.456.93.268.566.16 1.12-.324 1.659a35.424 35.424 0 0 0-2.589 2.912 23.794 23.794 0 0 0-2.344 3.558c1.455.54 2.75 1.375 3.881 2.507 1.133 1.133 2.13 2.48 2.993 4.044.215.432.538.756.97.97a5.514 5.514 0 0 1 2.345 1.941c.594.863.89 1.86.89 2.993 0 .378-.053.756-.161 1.133a2.723 2.723 0 0 0 .404 1.94c.81 1.133 1.24 2.427 1.295 3.882" mask="url(#b)" opacity=".3"/>
        </g>
        <path fill="#FFF" d="M50.866 37.197c-.863.216-1.914.323-3.154.323s-2.319-.107-3.234-.323c-.271 0-.662-.107-1.173-.324-.514-.215-.796-.62-.85-1.213.054-.486.323-.728.809-.728.376 0 .62.162.729.485.43.27 1.657.405 3.678.405 2.023 0 3.249-.134 3.68-.405.108-.323.35-.485.728-.485.486 0 .755.242.81.728-.055.594-.324.998-.81 1.213-.485.217-.888.324-1.213.324M49.33 45.123c0 .215.107.351.324.404.97.216 1.805.62 2.506 1.213.162.162.189.352.082.566l-.97 1.052c-.163.162-.324.19-.486.08-.756-.592-1.591-.889-2.508-.889-1.024.055-1.564.46-1.617 1.213 0 .378.161.688.486.93.322.243.97.526 1.94.85 1.186.323 2.104.795 2.75 1.416.647.62.97 1.495.97 2.627 0 .918-.282 1.7-.849 2.346-.566.647-1.363 1.105-2.386 1.375-.161.055-.242.19-.242.404v2.265a.518.518 0 0 1-.405.404h-1.374c-.27-.053-.404-.188-.404-.404v-2.103c0-.215-.11-.35-.325-.404-1.51-.216-2.668-.7-3.478-1.456-.161-.162-.161-.35 0-.567l.971-1.131c.163-.163.35-.163.566 0 .809.647 1.752.97 2.831.97 1.24 0 1.888-.512 1.942-1.536.053-.431-.082-.782-.405-1.052-.324-.27-.944-.54-1.86-.809-1.403-.431-2.386-.957-2.952-1.577-.567-.62-.85-1.388-.85-2.306 0-.915.296-1.684.89-2.304.593-.62 1.375-1.011 2.345-1.173.215-.053.325-.189.325-.404V43.02c0-.215.133-.324.404-.324h1.374c.216 0 .35.109.405.324v2.103z"/>
    </g>
</svg>
