<svg xmlns="http://www.w3.org/2000/svg" xmlns:xlink="http://www.w3.org/1999/xlink" width="60" height="59" viewBox="0 0 60 59">
    <defs>
        <path id="a" d="M.446.815h15.152V21.64H.446z"/>
        <path id="c" d="M.683.663h46.544v46.583H.683z"/>
    </defs>
    <g fill="none" fill-rule="evenodd">
        <path fill="#FFCE00" d="M23.637 35.3l.117.232.816 2.565c.154.778.271 1.631.35 2.564l.116 1.399v1.398a18.22 18.22 0 0 1-.7 2.798 8.54 8.54 0 0 1-1.281 2.33l-1.05 1.05-1.048.93c-.7.622-1.458 1.226-2.273 1.808a24.339 24.339 0 0 1-2.506 1.574l-1.282.699-1.399.583c-.932.388-1.847.717-2.74.99-.892.272-1.767.486-2.621.642-1.789.309-3.303.466-4.546.466H1.725l-.117-1.982c0-1.165.194-2.643.584-4.428.154-.855.368-1.748.641-2.681.271-.933.601-1.825.99-2.68l.583-1.4.7-1.282a16.68 16.68 0 0 1 1.573-2.563 95.092 95.092 0 0 1 1.807-2.331l.932-1.05c.31-.31.66-.622 1.049-.932a7.182 7.182 0 0 1 2.33-1.399c.39-.154.817-.27 1.284-.35l1.398-.233H18.393c.932.078 1.786.234 2.564.467l2.68.815z"/>
        <path fill="#FD3930" d="M9.418 20.148H20.84l-7.576 15.151-4.545-4.545c-.233-.233-.466-.35-.7-.35H.91c-.39 0-.662-.174-.815-.524-.158-.35-.117-.68.116-.991l8.508-8.51c.154-.154.387-.231.7-.231"/>
        <g transform="translate(24.59 36.698)">
            <mask id="b" fill="#fff">
                <use xlink:href="#a"/>
            </mask>
            <path fill="#FD3930" d="M15.598.815v11.423c0 .234-.079.466-.233.7l-8.508 8.39c-.312.311-.642.389-.992.234-.349-.156-.524-.428-.524-.815v-7.11c0-.31-.116-.543-.35-.7L.447 8.275 15.598.815z" mask="url(#b)"/>
        </g>
        <g transform="translate(11.803 -.679)">
            <mask id="d" fill="#fff">
                <use xlink:href="#c"/>
            </mask>
            <path fill="#E0E0E0" d="M45.984.896c.62.079.97.428 1.049 1.048l.117 1.05c.076.778.097 1.769.058 2.971a63.235 63.235 0 0 1-.291 4.139l-.35 2.33c-.157.856-.35 1.711-.583 2.565a42.19 42.19 0 0 1-1.574 5.245 39.398 39.398 0 0 1-2.389 5.244 36.54 36.54 0 0 1-3.204 4.896 42.427 42.427 0 0 1-3.963 4.429 50.398 50.398 0 0 1-4.605 3.963l-2.447 1.631a25.77 25.77 0 0 1-2.448 1.515 39.507 39.507 0 0 1-5.245 2.39 62.63 62.63 0 0 1-5.244 1.69c-.856.157-1.672.311-2.447.466l-2.449.35a33.034 33.034 0 0 1-4.079.408c-1.244.04-2.215.02-2.914-.058L1.81 47.05C1.266 46.975.955 46.625.88 46l-.117-1.048c-.079-.776-.099-1.767-.058-2.972.037-1.204.135-2.582.29-4.138l.35-2.331c.156-.855.35-1.708.583-2.564a39.27 39.27 0 0 1 1.574-5.188 41.206 41.206 0 0 1 2.39-5.185 44.85 44.85 0 0 1 1.514-2.564l1.749-2.449A46.37 46.37 0 0 1 13 13.076a39.496 39.496 0 0 1 4.487-3.963 39.788 39.788 0 0 1 4.953-3.206 41.369 41.369 0 0 1 5.187-2.389 52.829 52.829 0 0 1 5.304-1.69c.853-.155 1.669-.31 2.447-.466l2.447-.35c1.554-.232 2.932-.35 4.138-.35 1.204 0 2.156.041 2.856.118l1.165.116z" mask="url(#d)"/>
        </g>
        <path fill="#FD3930" d="M28.183 30.87v.117l.117.466c.155.466.155.895 0 1.282l-3.03 4.662-1.399 1.981-3.265 4.196-4.894 5.944a2.107 2.107 0 0 1-.933.7c-.389.155-.777.271-1.165.349-.778.156-1.476.272-2.098.351l-1.865.232H7.902v-1.048l.117-2.565c.156-.699.31-1.437.466-2.215a5.117 5.117 0 0 1 .933-2.097l3.847-3.147 4.312-3.38 4.079-2.913 4.545-3.03c.466-.156.893-.194 1.283-.118l.7.233z"/>
        <path fill="#2C3B47" d="M45.2 9.775c-1.09 0-2.022.389-2.798 1.165-.777.778-1.165 1.73-1.165 2.856 0 1.127.388 2.06 1.165 2.797.776.74 1.729 1.107 2.857 1.107 1.125 0 2.077-.367 2.854-1.107.776-.738 1.166-1.67 1.166-2.797 0-1.127-.39-2.078-1.166-2.856-.777-.776-1.748-1.165-2.913-1.165m-3.147 13.52c-.078 1.787-.7 3.282-1.865 4.487s-2.643 1.807-4.429 1.807c-1.788 0-3.283-.602-4.487-1.807-1.206-1.205-1.807-2.7-1.807-4.488 0-1.786.601-3.281 1.807-4.487 1.204-1.204 2.699-1.806 4.487-1.806 1.786 0 3.264.602 4.43 1.806 1.164 1.206 1.786 2.701 1.864 4.487"/>
    </g>
</svg>
