<svg xmlns="http://www.w3.org/2000/svg" xmlns:xlink="http://www.w3.org/1999/xlink" width="48" height="54" viewBox="0 0 48 54">
    <defs>
        <path id="a" d="M0 .65h47.398V33H0z"/>
    </defs>
    <g fill="none" fill-rule="evenodd">
        <path fill="#C7C7C7" d="M36.97 36.023c-.87-.078-1.58-.374-2.133-.89-.554-.512-.829-1.203-.829-2.073V16.116c-.08-2.922-1.087-5.351-3.022-7.288C29.05 6.893 26.62 5.925 23.7 5.925c-2.924 0-5.373.968-7.347 2.903-1.976 1.937-3.002 4.366-3.08 7.288v9.835c0 .87-.279 1.58-.83 2.133-.553.553-1.244.83-2.074.83-.83 0-1.521-.277-2.074-.83-.553-.552-.829-1.263-.829-2.133v-9.835c.157-4.581 1.758-8.393 4.8-11.435C15.305 1.64 19.116.08 23.698 0 28.28.08 32.093 1.64 35.133 4.68c3.04 3.042 4.602 6.854 4.681 11.435V33.06c0 .87-.278 1.56-.828 2.074-.554.515-1.226.81-2.015.889"/>
        <g transform="translate(0 20.56)">
            <mask id="b" fill="#fff">
                <use xlink:href="#a"/>
            </mask>
            <path fill="#FFC04E" d="M41.355 33H5.925c-1.66 0-3.063-.574-4.207-1.718C.572 30.136 0 28.734 0 27.075v-20.5c0-1.658.572-3.06 1.718-4.206C2.862 1.225 4.265.65 5.924.65h35.431c1.736 0 3.158.575 4.266 1.72 1.105 1.145 1.697 2.547 1.777 4.205v20.5c-.08 1.66-.672 3.061-1.777 4.207C44.513 32.426 43.091 33 41.355 33" mask="url(#b)"/>
        </g>
        <path fill="#FFDE8F" d="M5.214 48.82h-.355c-.474 0-.871-.178-1.185-.533a1.816 1.816 0 0 1-.475-1.244V27.728c0-.473.159-.888.475-1.244a1.518 1.518 0 0 1 1.185-.533h.355c.474 0 .868.178 1.185.533.315.356.474.77.474 1.244v19.315c0 .474-.16.888-.474 1.244a1.523 1.523 0 0 1-1.185.533"/>
    </g>
</svg>
