<svg xmlns="http://www.w3.org/2000/svg" xmlns:xlink="http://www.w3.org/1999/xlink" width="703" height="636" viewBox="0 0 703 636">
    <defs>
        <rect id="a" width="746" height="636" rx="10"/>
    </defs>
    <g fill="none" fill-rule="evenodd" transform="translate(-43)">
        <mask id="b" fill="#fff">
            <use xlink:href="#a"/>
        </mask>
        <use fill="#FFF" opacity=".1" xlink:href="#a"/>
        <path fill="#FFF" d="M-44 0h790v80H-44z" mask="url(#b)" opacity=".3"/>
        <text fill="#FFF" font-family="CircularAir-Bold, Circular Air" font-size="20" font-weight="bold" mask="url(#b)">
            <tspan x="122" y="47">Initializing Belvo</tspan>
        </text>
        <text font-family="Inconsolata-Bold, Inconsolata" font-size="16" font-weight="bold" mask="url(#b)">
            <tspan x="122" y="151" fill="#FFF">response </tspan> <tspan x="194" y="151" fill="#E27FFC">=</tspan> <tspan x="202" y="151" fill="#FFF"> client.Accounts.balance.</tspan> <tspan x="402" y="151" fill="#E27FFC">get</tspan> <tspan x="426" y="151" fill="#FFF">(access_token)</tspan>  <tspan x="122" y="177" fill="#FFF">{</tspan>  <tspan x="122" y="203" fill="#72D9FF"> &quot;result&quot; </tspan> <tspan x="226" y="203" fill="#FFF">:</tspan> <tspan x="234" y="203" fill="#72D9FF"> </tspan> <tspan x="242" y="203" fill="#50FCA3">200</tspan> <tspan x="266" y="203" fill="#72D9FF">,</tspan> <tspan x="122" y="229" fill="#72D9FF"> </tspan> <tspan x="154" y="229" fill="#FFF">{</tspan>  <tspan x="122" y="255" fill="#72D9FF"> &quot;type&quot; </tspan> <tspan x="210" y="255" fill="#FFF">:</tspan> <tspan x="218" y="255" fill="#72D9FF"> &quot;cuenta maestra&quot;</tspan> <tspan x="354" y="255" fill="#FFF">,</tspan>  <tspan x="122" y="281" fill="#72D9FF"> &quot;name&quot; </tspan> <tspan x="210" y="281" fill="#FFF">:</tspan> <tspan x="218" y="281" fill="#72D9FF"> &quot;Cuenta Maestra MXN-111&quot;</tspan> <tspan x="418" y="281" fill="#FFF">,</tspan>  <tspan x="122" y="307" fill="#72D9FF"> &quot;id&quot; </tspan> <tspan x="194" y="307" fill="#FFF">:</tspan> <tspan x="202" y="307" fill="#72D9FF"> &quot;qYtWdcs2kZk2bpP34Wxy&quot;</tspan> <tspan x="386" y="307" fill="#FFF">,</tspan>  <tspan x="122" y="333" fill="#72D9FF"> &quot;currency&quot; </tspan> <tspan x="242" y="333" fill="#FFF">:</tspan> <tspan x="250" y="333" fill="#72D9FF"> &quot;MXN&quot;</tspan> <tspan x="298" y="333" fill="#FFF">,</tspan>  <tspan x="122" y="359" fill="#72D9FF"> &quot;institution_id&quot; </tspan> <tspan x="290" y="359" fill="#FFF">:</tspan> <tspan x="298" y="359" fill="#72D9FF"> &quot;mxn237752&quot;</tspan> <tspan x="394" y="359" fill="#FFF">,</tspan>  <tspan x="122" y="385" fill="#72D9FF"> &quot;owners&quot; </tspan> <tspan x="226" y="385" fill="#FFF">:</tspan> <tspan x="234" y="385" fill="#72D9FF"> [&quot;Luis Suarez&quot;</tspan> <tspan x="354" y="385" fill="#FFF">,</tspan> <tspan x="362" y="385" fill="#72D9FF"> &quot;Daniela Suarez&quot;]</tspan> <tspan x="506" y="385" fill="#FFF">,</tspan>  <tspan x="122" y="411" fill="#72D9FF"> &quot;balance_current&quot; </tspan> <tspan x="298" y="411" fill="#FFF">:</tspan> <tspan x="306" y="411" fill="#72D9FF"> &quot;5,487.26&quot;</tspan> <tspan x="394" y="411" fill="#FFF">,</tspan>  <tspan x="122" y="437" fill="#72D9FF"> &quot;positive_balance_current&quot; </tspan> <tspan x="370" y="437" fill="#FFF">:</tspan> <tspan x="378" y="437" fill="#72D9FF"> </tspan> <tspan x="386" y="437" fill="#50FCA3">True</tspan> <tspan x="418" y="437" fill="#FFF">,</tspan>  <tspan x="122" y="463" fill="#72D9FF"> &quot;balance_available&quot; </tspan> <tspan x="314" y="463" fill="#FFF">:</tspan> <tspan x="322" y="463" fill="#72D9FF"> &quot;5,436.51&quot;</tspan> <tspan x="410" y="463" fill="#FFF">,</tspan>  <tspan x="122" y="489" fill="#72D9FF"> &quot;positive_balance_available&quot; </tspan> <tspan x="386" y="489" fill="#FFF">:</tspan> <tspan x="394" y="489" fill="#72D9FF"> </tspan> <tspan x="402" y="489" fill="#50FCA3">True</tspan> <tspan x="434" y="489" fill="#FFF">,</tspan>  <tspan x="122" y="515" fill="#72D9FF"> &quot;last_access_date&quot; </tspan> <tspan x="306" y="515" fill="#FFF">:</tspan> <tspan x="314" y="515" fill="#72D9FF"> &quot;2019-06-01 06:14:54.01 GMT&quot;</tspan> <tspan x="122" y="541" fill="#72D9FF"> </tspan> <tspan x="154" y="541" fill="#FFF">}</tspan> <tspan x="122" y="567" fill="#FFF">}</tspan>
        </text>
    </g>
</svg>
